<?xml version="1.0" standalone="no"?>
<!DOCTYPE svg PUBLIC "-//W3C//DTD SVG 20010904//EN"
 "http://www.w3.org/TR/2001/REC-SVG-20010904/DTD/svg10.dtd">
<svg version="1.0" xmlns="http://www.w3.org/2000/svg"
 width="880.000000pt" height="920.000000pt" viewBox="0 0 880.000000 920.000000"
 preserveAspectRatio="xMidYMid meet">

<g transform="translate(0.000000,920.000000) scale(0.100000,-0.100000)"
fill="#000000" stroke="none">
<path d="M5035 8784 c-780 -79 -1447 -396 -1970 -935 -840 -867 -1105 -2114
-689 -3244 96 -260 288 -607 452 -815 l51 -65 -1237 -1237 -1237 -1238 225
-225 225 -225 1237 1237 1236 1236 109 -80 c419 -312 891 -507 1417 -585 129
-20 192 -23 436 -23 334 0 478 17 766 90 861 218 1594 804 2000 1599 166 325
270 661 320 1041 24 179 24 561 0 740 -37 282 -103 536 -201 780 -371 924
-1159 1616 -2119 1860 -265 67 -424 87 -726 90 -140 2 -273 1 -295 -1z m615
-639 c575 -88 1109 -372 1478 -785 348 -388 559 -845 627 -1355 22 -160 22
-480 0 -640 -45 -338 -155 -659 -323 -943 -387 -653 -1026 -1081 -1792 -1199
-161 -25 -539 -25 -700 0 -956 148 -1719 790 -2013 1693 -87 266 -118 473
-119 769 0 370 65 681 212 1015 229 522 653 960 1175 1216 278 135 556 213
890 248 89 9 464 -3 565 -19z"/>
</g>
</svg>
